<?xml version="1.0" encoding="utf-8"?>
<!-- Generator: Adobe Illustrator 16.0.0, SVG Export Plug-In . SVG Version: 6.00 Build 0)  -->
<!DOCTYPE svg PUBLIC "-//W3C//DTD SVG 1.1//EN" "http://www.w3.org/Graphics/SVG/1.1/DTD/svg11.dtd">
<svg version="1.1" id="圖層_2" xmlns="http://www.w3.org/2000/svg" xmlns:xlink="http://www.w3.org/1999/xlink" x="0px" y="0px"
	 width="288px" height="24px" viewBox="0 0 288 24" enable-background="new 0 0 288 24" xml:space="preserve">
<path fill="#CA223E" d="M21.179,16.216c3.583,0.087,7.168,0.189,10.752,0.258c5.58,0.105,10.21-0.798,14.288-3.543
	c10.746-7.244,32.375-8.311,45.476-2.574c16.067,7.036,27.565,6.87,41.67-1.106c8.287-4.684,17.254-5.233,27.135-2.495
	c5.974,1.656,11.761,3.604,17.563,5.511c9.695,3.185,18.554,2.285,25.587-2.547c10.23-7.03,20.647-6.977,31.753-1.958
	c13.303,6.014,26.861,7.374,41.944,5.438c2.153-0.276,5.257-0.605,6.165,1.198c0.96,1.91-1.894,2.979-4.099,3.31
	c-12.98,1.937-26.011,3.149-38.159-2.304c-5.011-2.25-9.896-4.593-15.757-5.909c-5.509-1.237-10.108-0.667-14.322,1.945
	c-13.952,8.656-22.982,9.344-40.694,3.388c-5.402-1.816-10.765-3.68-16.676-4.784c-5.096-0.953-9.518-0.359-13.516,1.686
	c-0.426,0.218-0.909,0.399-1.278,0.649c-15.359,10.418-33.078,8.397-49.783,0.93c-11.134-4.98-29.846-4.29-39.156,1.788
	c-5.324,3.477-11.374,4.83-18.734,4.702c-7.442-0.126-14.88-0.259-22.258-1.112c-1.62-0.188-3.683-0.249-3.526-1.67
	c0.149-1.348,2.214-1.057,3.633-1.041c3.997,0.042,7.995,0.174,11.992,0.271C21.178,16.237,21.179,16.226,21.179,16.216z"/>
</svg>
